
<svg width="185px" height="41px" viewBox="0 0 185 41" version="1.1" xmlns="http://www.w3.org/2000/svg" xmlns:xlink="http://www.w3.org/1999/xlink">
    <g id="Google-Button" stroke="none" stroke-width="1" fill="none" fill-rule="evenodd">
        <g id="btn_google_signin_light_normal_web" transform="translate(-4.000000, -4.000000)">
            <g id="Group" transform="translate(4.000000, 4.500000)">
                <g id="button" fill="#FFFFFF">
                    <rect id="button-bg" x="0" y="0" width="185" height="40" rx="2"></rect>
                </g>
                <g id="logo_googleg_48dp" transform="translate(11.000000, 11.000000)">
                    <path d="M17.64,9.20454545 C17.64,8.56636364 17.5827273,7.95272727 17.4763636,7.36363636 L9,7.36363636 L9,10.845 L13.8436364,10.845 C13.635,11.97 13.0009091,12.9231818 12.0477273,13.5613636 L12.0477273,15.8195455 L14.9563636,15.8195455 C16.6581818,14.2527273 17.64,11.9454545 17.64,9.20454545 L17.64,9.20454545 Z" id="Shape" fill="#4285F4"></path>
                    <path d="M9,18 C11.43,18 13.4672727,17.1940909 14.9563636,15.8195455 L12.0477273,13.5613636 C11.2418182,14.1013636 10.2109091,14.4204545 9,14.4204545 C6.65590909,14.4204545 4.67181818,12.8372727 3.96409091,10.71 L0.957272727,10.71 L0.957272727,13.0418182 C2.43818182,15.9831818 5.48181818,18 9,18 L9,18 Z" id="Shape" fill="#34A853"></path>
                    <path d="M3.96409091,10.71 C3.78409091,10.17 3.68181818,9.59318182 3.68181818,9 C3.68181818,8.40681818 3.78409091,7.83 3.96409091,7.29 L3.96409091,4.95818182 L0.957272727,4.95818182 C0.347727273,6.17318182 0,7.54772727 0,9 C0,10.4522727 0.347727273,11.8268182 0.957272727,13.0418182 L3.96409091,10.71 L3.96409091,10.71 Z" id="Shape" fill="#FBBC05"></path>
                    <path d="M9,3.57954545 C10.3213636,3.57954545 11.5077273,4.03363636 12.4404545,4.92545455 L15.0218182,2.34409091 C13.4631818,0.891818182 11.4259091,0 9,0 C5.48181818,0 2.43818182,2.01681818 0.957272727,4.95818182 L3.96409091,7.29 C4.67181818,5.16272727 6.65590909,3.57954545 9,3.57954545 L9,3.57954545 Z" id="Shape" fill="#EA4335"></path>
                    <polygon id="Shape" points="0 0 18 0 18 18 0 18"></polygon>
                </g>
                <path d="M51.7226562,25 L50,25 L50,15.046875 L51.7226562,15.046875 L51.7226562,25 Z M55.4294922,17.6035156 L55.4773438,18.4580078 C56.0242215,17.7971972 56.7419877,17.4667969 57.6306641,17.4667969 C59.1710364,17.4667969 59.9548827,18.348624 59.9822266,20.1123047 L59.9822266,25 L58.3210938,25 L58.3210938,20.2080078 C58.3210938,19.7386044 58.219695,19.3911144 58.0168945,19.1655273 C57.814094,18.9399403 57.4825544,18.8271484 57.0222656,18.8271484 C56.3523404,18.8271484 55.853322,19.1302053 55.5251953,19.7363281 L55.5251953,25 L53.8640625,25 L53.8640625,17.6035156 L55.4294922,17.6035156 Z M61.5835938,21.2470703 C61.5835938,20.0986271 61.8536106,19.1814813 62.3936523,18.4956055 C62.9336941,17.8097296 63.6503211,17.4667969 64.5435547,17.4667969 C65.3866579,17.4667969 66.0497372,17.7607392 66.5328125,18.3486328 L66.6080078,17.6035156 L68.1050781,17.6035156 L68.1050781,24.7744141 C68.1050781,25.745122 67.8031606,26.5107394 67.1993164,27.0712891 C66.5954722,27.6318387 65.7808645,27.9121094 64.7554688,27.9121094 C64.2131483,27.9121094 63.6833685,27.7993175 63.1661133,27.5737305 C62.6488581,27.3481434 62.2557956,27.0530617 61.9869141,26.6884766 L62.7730469,25.6904297 C63.2834661,26.2965525 63.9123661,26.5996094 64.6597656,26.5996094 C65.2112007,26.5996094 65.6464177,26.4503596 65.9654297,26.1518555 C66.2844417,25.8533514 66.4439453,25.4147164 66.4439453,24.8359375 L66.4439453,24.3369141 C65.9654273,24.8701199 65.3274128,25.1367188 64.5298828,25.1367188 C63.6639931,25.1367188 62.9564806,24.7926467 62.4073242,24.1044922 C61.8581678,23.4163377 61.5835938,22.4638733 61.5835938,21.2470703 Z M63.2378906,21.390625 C63.2378906,22.1334673 63.3894191,22.7179341 63.6924805,23.144043 C63.9955419,23.5701519 64.4159478,23.7832031 64.9537109,23.7832031 C65.6236362,23.7832031 66.120376,23.4960966 66.4439453,22.921875 L66.4439453,19.6679688 C66.1294906,19.1074191 65.637308,18.8271484 64.9673828,18.8271484 C64.4205051,18.8271484 63.9955419,19.0436176 63.6924805,19.4765625 C63.3894191,19.9095074 63.2378906,20.5475218 63.2378906,21.390625 Z M73.8832031,19.1210938 C73.664452,19.0846352 73.4388684,19.0664062 73.2064453,19.0664062 C72.4453738,19.0664062 71.9326836,19.35807 71.6683594,19.9414062 L71.6683594,25 L70.0072266,25 L70.0072266,17.6035156 L71.5931641,17.6035156 L71.6341797,18.4306641 C72.0352234,17.7880827 72.5912074,17.4667969 73.3021484,17.4667969 C73.5391288,17.4667969 73.7350904,17.4986976 73.8900391,17.5625 L73.8832031,19.1210938 Z M78.2599609,25.1367188 C77.2072213,25.1367188 76.353877,24.8051791 75.6999024,24.1420898 C75.0459277,23.4790006 74.7189453,22.5960342 74.7189453,21.4931641 L74.7189453,21.2880859 C74.7189453,20.549801 74.8613593,19.8901396 75.1461914,19.309082 C75.4310236,18.7280244 75.8309219,18.2757178 76.3458984,17.9521484 C76.860875,17.6285791 77.435088,17.4667969 78.0685547,17.4667969 C79.0757212,17.4667969 79.853871,17.7880827 80.4030274,18.4306641 C80.9521837,19.0732454 81.2267578,19.982416 81.2267578,21.1582031 L81.2267578,21.828125 L76.39375,21.828125 C76.4438805,22.4388051 76.6478172,22.9218732 77.0055664,23.2773438 C77.3633156,23.6328143 77.8133437,23.8105469 78.3556641,23.8105469 C79.1167356,23.8105469 79.7365211,23.5029328 80.2150391,22.8876953 L81.1105469,23.7421875 C80.8143214,24.184247 80.4189803,24.5271798 79.9245117,24.7709961 C79.4300431,25.0148124 78.8751984,25.1367188 78.2599609,25.1367188 Z M78.0617188,18.7998047 C77.6059873,18.7998047 77.2379897,18.9593083 76.9577149,19.2783203 C76.67744,19.5973323 76.4985681,20.0416638 76.4210938,20.6113281 L79.5861328,20.6113281 L79.5861328,20.4882812 C79.5496743,19.9322889 79.4015638,19.5118829 79.1417969,19.2270508 C78.88203,18.9422186 78.5220075,18.7998047 78.0617188,18.7998047 Z M86.8613281,22.9902344 C86.8613281,22.6940089 86.7394218,22.4684253 86.4956055,22.3134766 C86.2517892,22.1585279 85.8473336,22.0218105 85.2822266,21.9033203 C84.7171196,21.7848301 84.2454446,21.634441 83.8671875,21.4521484 C83.0377563,21.0511048 82.6230469,20.4700559 82.6230469,19.7089844 C82.6230469,19.0709604 82.8919244,18.5377626 83.4296875,18.109375 C83.9674506,17.6809874 84.6510375,17.4667969 85.4804688,17.4667969 C86.3645878,17.4667969 87.0789361,17.6855447 87.6235352,18.1230469 C88.1681342,18.5605491 88.4404297,19.1279262 88.4404297,19.8251953 L86.7792969,19.8251953 C86.7792969,19.5061833 86.6608085,19.2407237 86.4238281,19.0288086 C86.1868478,18.8168935 85.8723978,18.7109375 85.4804688,18.7109375 C85.1158836,18.7109375 84.8185233,18.7952466 84.5883789,18.9638672 C84.3582345,19.1324878 84.2431641,19.3580715 84.2431641,19.640625 C84.2431641,19.8958346 84.3502594,20.0940748 84.5644531,20.2353516 C84.7786469,20.3766283 85.2115853,20.5190423 85.8632813,20.6625977 C86.5149772,20.8061531 87.0265281,20.9770498 87.3979492,21.175293 C87.7693704,21.3735361 88.0450838,21.6116523 88.2250977,21.8896484 C88.4051116,22.1676446 88.4951172,22.5048808 88.4951172,22.9013672 C88.4951172,23.5667351 88.2194038,24.1056294 87.6679688,24.5180664 C87.1165337,24.9305034 86.3942102,25.1367188 85.5009766,25.1367188 C84.8948538,25.1367188 84.3548201,25.0273448 83.8808594,24.8085938 C83.4068987,24.5898427 83.0377618,24.2890644 82.7734375,23.90625 C82.5091133,23.5234356 82.3769531,23.1110048 82.3769531,22.6689453 L83.9902344,22.6689453 C84.013021,23.0608744 84.1611315,23.3627919 84.4345703,23.574707 C84.7080092,23.7866222 85.0703103,23.8925781 85.5214844,23.8925781 C85.9589866,23.8925781 86.2916655,23.8094084 86.5195313,23.6430664 C86.747397,23.4767244 86.8613281,23.2591159 86.8613281,22.9902344 Z M94.5603516,25 C94.4874345,24.8587233 94.4236331,24.6285823 94.3689453,24.3095703 C93.8402969,24.8610054 93.1931679,25.1367188 92.4275391,25.1367188 C91.6846968,25.1367188 91.0785831,24.9248068 90.6091797,24.5009766 C90.1397763,24.0771463 89.9050781,23.553063 89.9050781,22.9287109 C89.9050781,22.1402955 90.1978812,21.5353211 90.7834961,21.1137695 C91.369111,20.6922179 92.206505,20.4814453 93.2957031,20.4814453 L94.3142578,20.4814453 L94.3142578,19.9960938 C94.3142578,19.6132793 94.2071625,19.3068045 93.9929688,19.0766602 C93.778775,18.8465158 93.4529319,18.7314453 93.0154297,18.7314453 C92.6371726,18.7314453 92.3272799,18.8260082 92.0857422,19.0151367 C91.8442045,19.2042653 91.7234375,19.44466 91.7234375,19.7363281 L90.0623047,19.7363281 C90.0623047,19.3307271 90.1967435,18.9513364 90.465625,18.5981445 C90.7345066,18.2449527 91.1002256,17.9681 91.562793,17.7675781 C92.0253604,17.5670563 92.5414685,17.4667969 93.1111328,17.4667969 C93.9770226,17.4667969 94.6674454,17.6844054 95.1824219,18.1196289 C95.6973984,18.5548524 95.9617187,19.1666627 95.9753906,19.9550781 L95.9753906,23.2910156 C95.9753906,23.9563835 96.0688142,24.4873027 96.2556641,24.8837891 L96.2556641,25 L94.5603516,25 Z M92.7351563,23.8037109 C93.0632829,23.8037109 93.3720363,23.7239591 93.6614258,23.5644531 C93.9508153,23.4049471 94.1684238,23.1907566 94.3142578,22.921875 L94.3142578,21.5273438 L93.41875,21.5273438 C92.8035126,21.5273438 92.3409521,21.634439 92.0310547,21.8486328 C91.7211573,22.0628266 91.566211,22.3658835 91.566211,22.7578125 C91.566211,23.0768245 91.6721669,23.330891 91.884082,23.5200195 C92.0959972,23.7091481 92.3796857,23.8037109 92.7351563,23.8037109 Z M104.640039,23.8105469 C105.054755,23.8105469 105.398827,23.6897799 105.672266,23.4482422 C105.945705,23.2067045 106.091536,22.9082049 106.109766,22.5527344 L107.675195,22.5527344 C107.656966,23.0130231 107.513413,23.4425436 107.244531,23.8413086 C106.97565,24.2400736 106.61107,24.5556629 106.150781,24.7880859 C105.690493,25.020509 105.193753,25.1367188 104.660547,25.1367188 C103.626037,25.1367188 102.805732,24.8017612 102.199609,24.1318359 C101.593487,23.4619107 101.29043,22.5367898 101.29043,21.3564453 L101.29043,21.1855469 C101.29043,20.0598902 101.591208,19.1586948 102.192773,18.4819336 C102.794339,17.8051724 103.614643,17.4667969 104.653711,17.4667969 C105.533273,17.4667969 106.2499,17.723142 106.803613,18.2358398 C107.357327,18.7485377 107.647851,19.4218708 107.675195,20.2558594 L106.109766,20.2558594 C106.091536,19.8320291 105.946844,19.4833998 105.675684,19.2099609 C105.404523,18.9365221 105.059312,18.7998047 104.640039,18.7998047 C104.102276,18.7998047 103.687567,18.994627 103.395898,19.3842773 C103.10423,19.7739277 102.95612,20.3652304 102.951563,21.1582031 L102.951563,21.4248047 C102.951563,22.226892 103.096255,22.8250306 103.385645,23.2192383 C103.675034,23.613446 104.093161,23.8105469 104.640039,23.8105469 Z M108.818555,21.2333984 C108.818555,20.5087854 108.962108,19.8559599 109.249219,19.2749023 C109.53633,18.6938448 109.939646,18.2472346 110.45918,17.9350586 C110.978714,17.6228826 111.575713,17.4667969 112.250195,17.4667969 C113.248247,17.4667969 114.058298,17.7880827 114.680371,18.4306641 C115.302445,19.0732454 115.638541,19.9254504 115.688672,20.9873047 L115.695508,21.3769531 C115.695508,22.1061234 115.555373,22.7578096 115.275098,23.3320312 C114.994823,23.9062529 114.593785,24.3505844 114.071973,24.6650391 C113.55016,24.9794938 112.947464,25.1367188 112.263867,25.1367188 C111.220242,25.1367188 110.385127,24.7892287 109.758496,24.0942383 C109.131865,23.3992478 108.818555,22.4729876 108.818555,21.3154297 L108.818555,21.2333984 Z M110.479688,21.3769531 C110.479688,22.1380246 110.636913,22.7338846 110.951367,23.1645508 C111.265822,23.595217 111.703318,23.8105469 112.263867,23.8105469 C112.824417,23.8105469 113.260773,23.5917991 113.572949,23.1542969 C113.885125,22.7167947 114.041211,22.0765016 114.041211,21.2333984 C114.041211,20.4859989 113.880568,19.8935569 113.559277,19.4560547 C113.237987,19.0185525 112.80163,18.7998047 112.250195,18.7998047 C111.707875,18.7998047 111.277215,19.0151346 110.958203,19.4458008 C110.639191,19.876467 110.479688,20.520178 110.479688,21.3769531 Z M118.841797,17.6035156 L118.889648,18.4580078 C119.436526,17.7971972 120.154292,17.4667969 121.042969,17.4667969 C122.583341,17.4667969 123.367187,18.348624 123.394531,20.1123047 L123.394531,25 L121.733398,25 L121.733398,20.2080078 C121.733398,19.7386044 121.632,19.3911144 121.429199,19.1655273 C121.226399,18.9399403 120.894859,18.8271484 120.43457,18.8271484 C119.764645,18.8271484 119.265627,19.1302053 118.9375,19.7363281 L118.9375,25 L117.276367,25 L117.276367,17.6035156 L118.841797,17.6035156 Z M136.762305,23.7080078 C136.402277,24.1774112 135.903258,24.5328764 135.265234,24.7744141 C134.62721,25.0159517 133.902608,25.1367188 133.091406,25.1367188 C132.257418,25.1367188 131.519144,24.947593 130.876563,24.5693359 C130.233981,24.1910788 129.738381,23.6499059 129.389746,22.9458008 C129.041112,22.2416957 128.859961,21.4202521 128.846289,20.4814453 L128.846289,19.7021484 C128.846289,18.1982347 129.206312,17.0236045 129.926367,16.1782227 C130.646423,15.3328408 131.651296,14.9101562 132.941016,14.9101562 C134.048443,14.9101562 134.927992,15.183591 135.579688,15.7304688 C136.231384,16.2773465 136.623307,17.0657501 136.755469,18.0957031 L135.060156,18.0957031 C134.868749,16.8971294 134.173769,16.2978516 132.975195,16.2978516 C132.200452,16.2978516 131.611428,16.5769829 131.208106,17.1352539 C130.804783,17.6935249 130.596289,18.5126899 130.582617,19.5927734 L130.582617,20.3583984 C130.582617,21.4339246 130.80934,22.26904 131.262793,22.8637695 C131.716246,23.4584991 132.346285,23.7558594 133.15293,23.7558594 C134.037049,23.7558594 134.665949,23.5553405 135.039648,23.1542969 L135.039648,21.2060547 L132.988867,21.2060547 L132.988867,19.8935547 L136.762305,19.8935547 L136.762305,23.7080078 Z M138.391016,21.2333984 C138.391016,20.5087854 138.534569,19.8559599 138.82168,19.2749023 C139.108791,18.6938448 139.512107,18.2472346 140.031641,17.9350586 C140.551175,17.6228826 141.148174,17.4667969 141.822656,17.4667969 C142.820708,17.4667969 143.630759,17.7880827 144.252832,18.4306641 C144.874905,19.0732454 145.211002,19.9254504 145.261133,20.9873047 L145.267969,21.3769531 C145.267969,22.1061234 145.127833,22.7578096 144.847559,23.3320312 C144.567284,23.9062529 144.166246,24.3505844 143.644434,24.6650391 C143.122621,24.9794938 142.519925,25.1367188 141.836328,25.1367188 C140.792703,25.1367188 139.957588,24.7892287 139.330957,24.0942383 C138.704326,23.3992478 138.391016,22.4729876 138.391016,21.3154297 L138.391016,21.2333984 Z M140.052148,21.3769531 C140.052148,22.1380246 140.209373,22.7338846 140.523828,23.1645508 C140.838283,23.595217 141.275778,23.8105469 141.836328,23.8105469 C142.396878,23.8105469 142.833234,23.5917991 143.14541,23.1542969 C143.457586,22.7167947 143.613672,22.0765016 143.613672,21.2333984 C143.613672,20.4859989 143.453029,19.8935569 143.131738,19.4560547 C142.810448,19.0185525 142.374091,18.7998047 141.822656,18.7998047 C141.280336,18.7998047 140.849676,19.0151346 140.530664,19.4458008 C140.211652,19.876467 140.052148,20.520178 140.052148,21.3769531 Z M146.561719,21.2333984 C146.561719,20.5087854 146.705272,19.8559599 146.992383,19.2749023 C147.279494,18.6938448 147.68281,18.2472346 148.202344,17.9350586 C148.721878,17.6228826 149.318877,17.4667969 149.993359,17.4667969 C150.991411,17.4667969 151.801462,17.7880827 152.423535,18.4306641 C153.045609,19.0732454 153.381706,19.9254504 153.431836,20.9873047 L153.438672,21.3769531 C153.438672,22.1061234 153.298537,22.7578096 153.018262,23.3320312 C152.737987,23.9062529 152.336949,24.3505844 151.815137,24.6650391 C151.293324,24.9794938 150.690628,25.1367188 150.007031,25.1367188 C148.963406,25.1367188 148.128291,24.7892287 147.50166,24.0942383 C146.875029,23.3992478 146.561719,22.4729876 146.561719,21.3154297 L146.561719,21.2333984 Z M148.222852,21.3769531 C148.222852,22.1380246 148.380077,22.7338846 148.694531,23.1645508 C149.008986,23.595217 149.446482,23.8105469 150.007031,23.8105469 C150.567581,23.8105469 151.003937,23.5917991 151.316113,23.1542969 C151.628289,22.7167947 151.784375,22.0765016 151.784375,21.2333984 C151.784375,20.4859989 151.623732,19.8935569 151.302441,19.4560547 C150.981151,19.0185525 150.544794,18.7998047 149.993359,18.7998047 C149.451039,18.7998047 149.020379,19.0151346 148.701367,19.4458008 C148.382355,19.876467 148.222852,20.520178 148.222852,21.3769531 Z M154.75293,21.2470703 C154.75293,20.0986271 155.022947,19.1814813 155.562988,18.4956055 C156.10303,17.8097296 156.819657,17.4667969 157.712891,17.4667969 C158.555994,17.4667969 159.219073,17.7607392 159.702148,18.3486328 L159.777344,17.6035156 L161.274414,17.6035156 L161.274414,24.7744141 C161.274414,25.745122 160.972497,26.5107394 160.368652,27.0712891 C159.764808,27.6318387 158.9502,27.9121094 157.924805,27.9121094 C157.382484,27.9121094 156.852704,27.7993175 156.335449,27.5737305 C155.818194,27.3481434 155.425132,27.0530617 155.15625,26.6884766 L155.942383,25.6904297 C156.452802,26.2965525 157.081702,26.5996094 157.829102,26.5996094 C158.380537,26.5996094 158.815754,26.4503596 159.134766,26.1518555 C159.453778,25.8533514 159.613281,25.4147164 159.613281,24.8359375 L159.613281,24.3369141 C159.134763,24.8701199 158.496749,25.1367188 157.699219,25.1367188 C156.833329,25.1367188 156.125817,24.7926467 155.57666,24.1044922 C155.027504,23.4163377 154.75293,22.4638733 154.75293,21.2470703 Z M156.407227,21.390625 C156.407227,22.1334673 156.558755,22.7179341 156.861816,23.144043 C157.164878,23.5701519 157.585284,23.7832031 158.123047,23.7832031 C158.792972,23.7832031 159.289712,23.4960966 159.613281,22.921875 L159.613281,19.6679688 C159.298827,19.1074191 158.806644,18.8271484 158.136719,18.8271484 C157.589841,18.8271484 157.164878,19.0436176 156.861816,19.4765625 C156.558755,19.9095074 156.407227,20.5475218 156.407227,21.390625 Z M164.94707,25 L163.285938,25 L163.285938,14.5 L164.94707,14.5 L164.94707,25 Z M170.2125,25.1367188 C169.15976,25.1367188 168.306416,24.8051791 167.652441,24.1420898 C166.998467,23.4790006 166.671484,22.5960342 166.671484,21.4931641 L166.671484,21.2880859 C166.671484,20.549801 166.813898,19.8901396 167.098731,19.309082 C167.383563,18.7280244 167.783461,18.2757178 168.298438,17.9521484 C168.813414,17.6285791 169.387627,17.4667969 170.021094,17.4667969 C171.02826,17.4667969 171.80641,17.7880827 172.355566,18.4306641 C172.904723,19.0732454 173.179297,19.982416 173.179297,21.1582031 L173.179297,21.828125 L168.346289,21.828125 C168.39642,22.4388051 168.600356,22.9218732 168.958106,23.2773438 C169.315855,23.6328143 169.765883,23.8105469 170.308203,23.8105469 C171.069275,23.8105469 171.68906,23.5029328 172.167578,22.8876953 L173.063086,23.7421875 C172.766861,24.184247 172.371519,24.5271798 171.877051,24.7709961 C171.382582,25.0148124 170.827738,25.1367188 170.2125,25.1367188 Z M170.014258,18.7998047 C169.558526,18.7998047 169.190529,18.9593083 168.910254,19.2783203 C168.629979,19.5973323 168.451107,20.0416638 168.373633,20.6113281 L171.538672,20.6113281 L171.538672,20.4882812 C171.502213,19.9322889 171.354103,19.5118829 171.094336,19.2270508 C170.834569,18.9422186 170.474547,18.7998047 170.014258,18.7998047 Z" id="Ingresa-con-Google" fill="#757575"></path>
            </g>
        </g>
    </g>
</svg>